<svg xmlns="http://www.w3.org/2000/svg" version="1.1" xmlns:xlink="http://www.w3.org/1999/xlink" xmlns:svgjs="http://svgjs.com/svgjs" viewBox="0 0 640 400" data-background-color="#fbcd08" preserveAspectRatio="xMidYMid meet" height="400" width="640"><rect width="640" height="400" x="0" y="0" opacity="1" fill="#fbcd08" data-fill-palette-color="background" id="background"></rect><g id="tight-bounds" transform="matrix(1,0,0,1,238.48360537496268,76.4)"><svg viewBox="0 0 163.03278925007464 247.2" height="247.2" width="163.03278925007464"><g><svg viewBox="0 0 397.4975999999999 602.709474406879" height="247.2" width="163.03278925007464"><g><rect width="397.4975999999999" height="17.24094044912495" x="0" y="309.34611569047354" fill="#372e18" opacity="1" stroke-width="0" stroke="transparent" fill-opacity="1" class="rect-borderrectangle-0" data-fill-palette-color="primary" rx="1%" id="borderrectangle-0" data-palette-color="#372e18"></rect></g><g><rect width="397.4975999999999" height="17.24094044912495" x="0" y="349.1537321201285" fill="#372e18" opacity="1" stroke-width="0" stroke="transparent" fill-opacity="1" class="rect-borderrectangle-1" data-fill-palette-color="primary" rx="1%" id="borderrectangle-1" data-palette-color="#372e18"></rect></g><g transform="matrix(1,0,0,1,0.9887999999999693,411.5280245303135)"><svg viewBox="0 0 395.52 191.18144987656547" height="191.18144987656547" width="395.52"><g><svg viewBox="0 0 395.52 191.18144987656547" height="191.18144987656547" width="395.52"><g><svg viewBox="0 0 395.52 191.18144987656547" height="191.18144987656547" width="395.52"><g transform="matrix(1,0,0,1,0,0)"><svg width="395.52" viewBox="1.9000006666849998 -33 69.299999333315 33.5" height="191.18144987656547" data-palette-color="#372e18"><path d="M19.25-33L24.65-33 24.65-11.7Q24.65-5.95 21.48-2.73 18.3 0.5 12.65 0.5L12.65 0.5Q8.6 0.5 6.05-1 3.5-2.5 2.5-5.23 1.5-7.95 2.15-11.55L2.15-11.55 7.3-12.5Q6.7-8.2 7.95-6.18 9.2-4.15 12.65-4.15L12.65-4.15Q16.4-4.15 17.82-6.33 19.25-8.5 19.25-12.7L19.25-12.7 19.25-33ZM35.95-6.75L35.95-6.75Q37.65-6.75 38.67-5.78 39.7-4.8 39.7-3.15L39.7-3.15Q39.7-1.5 38.67-0.5 37.65 0.5 35.95 0.5L35.95 0.5Q34.2 0.5 33.17-0.5 32.15-1.5 32.15-3.15L32.15-3.15Q32.15-4.8 33.17-5.78 34.2-6.75 35.95-6.75ZM53-33L53-4.6 71.2-4.6 71.2 0 47.65 0 47.65-33 53-33Z" opacity="1" transform="matrix(1,0,0,1,0,0)" fill="#372e18" class="undefined-text-0" data-fill-palette-color="primary" id="text-0"></path></svg></g></svg></g></svg></g></svg></g><g transform="matrix(1,0,0,1,127.41074610977857,0)"><svg viewBox="0 0 142.67610778044278 264.2127637294135" height="264.2127637294135" width="142.67610778044278"><g><svg xmlns="http://www.w3.org/2000/svg" xmlns:xlink="http://www.w3.org/1999/xlink" version="1.1" x="0" y="0" viewBox="0 0 54.001 100.001" enable-background="new 0 0 54.001 100" xml:space="preserve" height="264.2127637294135" width="142.67610778044278" class="icon-icon-0" fill="#372e18" data-fill-palette-color="accent" id="icon-0"><path d="M41.004 93.994c-1.983 0-7.519 0-11 0V31.017h23.997L43.015 0H27.008l0 0H11L0 31.017h23.998v62.977c-3.481 0-9.002 0-11 0-2.996 0-3.995 6.007-3.995 6.007h18.006 18.005C45.013 100 44.014 93.994 41.004 93.994z" fill="#372e18" data-fill-palette-color="accent"></path></svg></g></svg></g><g></g></svg></g></svg><rect width="163.03278925007464" height="247.2" fill="transparent" stroke="transparent"></rect></g><defs></defs></svg>