<svg xmlns="http://www.w3.org/2000/svg" version="1.1" xmlns:xlink="http://www.w3.org/1999/xlink" xmlns:svgjs="http://svgjs.com/svgjs" viewBox="0 0 640 400" data-background-color="#282634" preserveAspectRatio="xMidYMid meet" height="400" width="640"><rect width="640" height="400" x="0" y="0" opacity="1" fill="#282634" data-fill-palette-color="background" id="background"></rect><g id="tight-bounds" transform="matrix(1,0,0,1,122.24000000000001,131.08922233798535)"><svg viewBox="0 0 395.52 137.8215553240293" height="137.8215553240293" width="395.52"><g><svg viewBox="0 0 709.4140228655021 247.2" height="137.8215553240293" width="395.52"><g transform="matrix(1,0,0,1,325.61262034095796,0)"><svg viewBox="0 0 383.8014025245442 247.2" height="247.2" width="383.8014025245442"><g><svg viewBox="0 0 383.8014025245442 247.2" height="247.2" width="383.8014025245442"><g><svg viewBox="0 0 383.8014025245442 247.2" height="247.2" width="383.8014025245442"><g transform="matrix(1,0,0,1,0,0)"><svg width="383.8014025245442" viewBox="0.45 -35.1 55.349999999999994 35.65" height="247.2" data-palette-color="#ff4057"><g class="undefined-text-0" data-fill-palette-color="primary" id="text-0"><path d="M0.45-4.5L0.45-4.5Q0.45-5.95 1.3-7.88 2.15-9.8 3.15-10.5L3.15-10.5Q5.05-9.1 7-9.1L7-9.1 8.55-9.35Q11.25-10.15 11.35-13.65L11.35-13.65 11.35-26.4 7.35-26.4Q6.5-26.4 6.15-28.55L6.15-28.55Q6-29.6 6-30.7 6-31.8 6.15-32.85L6.15-32.85Q6.5-35 7.35-35L7.35-35 19.25-35Q20.25-35 20.75-34.43 21.25-33.85 21.25-33.05L21.25-33.05 21.25-9.45Q21.25-4.55 17.98-2 14.7 0.55 10.13 0.55 5.55 0.55 3-0.8 0.45-2.15 0.45-4.5ZM33.55-9L33.55 0.15Q33.55 0.5 28.82 0.5 24.1 0.5 24.1 0.2L24.1 0.2 24.1-8.8Q24.1-9.25 28.82-9.25 33.55-9.25 33.55-9L33.55-9ZM36.55-2.95L36.55-2.95 36.55-34.05Q36.55-35.1 41.62-35.1 46.7-35.1 46.7-34.05L46.7-34.05 46.7-9.55 54.4-9.55Q55.3-9.55 55.65-7.2L55.65-7.2Q55.8-6.05 55.8-4.85 55.8-3.65 55.65-2.4L55.65-2.4Q55.25 0 54.34 0L54.34 0 38.95 0Q37.84 0 37.2-0.9 36.55-1.8 36.55-2.95Z" fill="#ff4057" data-fill-palette-color="primary"></path></g></svg></g></svg></g></svg></g></svg></g><g transform="matrix(1,0,0,1,0,19.151677029520997)"><svg viewBox="0 0 208.896645940958 208.896645940958" height="208.896645940958" width="208.896645940958"><g><svg xmlns="http://www.w3.org/2000/svg" version="1.1" xmlns:xlink="http://www.w3.org/1999/xlink" xmlns:svgjs="http://svgjs.com/svgjs"></svg></g><g id="icon-0"><svg viewBox="0 0 208.896645940958 208.896645940958" height="208.896645940958" width="208.896645940958"><g><path d="M0 104.448c0-57.685 46.763-104.448 104.448-104.448 57.685 0 104.448 46.763 104.449 104.448 0 57.685-46.763 104.448-104.449 104.449-57.685 0-104.448-46.763-104.448-104.449zM104.448 186.604c45.373 0 82.156-36.782 82.156-82.156 0-45.373-36.782-82.156-82.156-82.155-45.373 0-82.156 36.782-82.155 82.155 0 45.373 36.782 82.156 82.155 82.156z" data-fill-palette-color="accent" fill="#dcdcdc" stroke="transparent"></path></g><g transform="matrix(1,0,0,1,86.04036902661481,54.741467943497426)"><svg viewBox="0 0 36.81590788772838 99.41371005396314" height="99.41371005396314" width="36.81590788772838"><g><svg xmlns="http://www.w3.org/2000/svg" xmlns:xlink="http://www.w3.org/1999/xlink" version="1.1" x="0" y="0" viewBox="35.112 14.425 26.348999999999997 71.15" enable-background="new 0 0 100 100" xml:space="preserve" height="99.41371005396314" width="36.81590788772838" class="icon-symbol-0" fill="#dcdcdc" data-fill-palette-color="accent" id="symbol-0"><rect x="35.112" y="14.425" fill="#dcdcdc" width="26.349" height="49.589" data-fill-palette-color="accent"></rect><rect x="47.48" y="57.116" fill="#dcdcdc" width="1.989" height="25.852" data-fill-palette-color="accent"></rect><rect x="47.186" y="79.923" fill="#dcdcdc" width="2.578" height="0.634" data-fill-palette-color="accent"></rect><g fill="#dcdcdc" data-fill-palette-color="accent"><path fill="#dcdcdc" d="M58.686 83.371c0-0.147 0-0.287 0-0.403-10.399-3.637-10.399-3.637-20.798 0 0 0.097 0 0.24 0 0.403H58.686z" data-fill-palette-color="accent"></path></g><path fill="#dcdcdc" d="M54.094 63.028c0 0 0 6.532 0 8.369-0.142 0.142-0.801 0-0.801 0v-8.369H54.094z" data-fill-palette-color="accent"></path><path fill="#dcdcdc" d="M54.094 63.028c0 0 0 6.78 0 8.369-0.34 0.211-0.801 0-0.801 0" data-fill-palette-color="accent"></path><rect x="37.885" y="83.702" fill="#dcdcdc" width="20.8" height="1.873" data-fill-palette-color="accent"></rect></svg></g></svg></g></svg></g></svg></g></svg></g></svg><rect width="395.52" height="137.8215553240293" fill="transparent" stroke="transparent"></rect></g><defs></defs></svg>