<svg xmlns="http://www.w3.org/2000/svg" version="1.1" xmlns:xlink="http://www.w3.org/1999/xlink" xmlns:svgjs="http://svgjs.com/svgjs" viewBox="0 0 640 400" data-background-color="#ffffff" preserveAspectRatio="xMidYMid meet" height="400" width="640"><rect width="640" height="400" x="0" y="0" opacity="1" fill="#ffffff" data-fill-palette-color="background" id="background"></rect><g id="tight-bounds" transform="matrix(1,0,0,1,197.78432,76.4)"><svg viewBox="0 0 244.43135999999998 247.2" height="247.2" width="244.43135999999998"><g><svg xmlns="http://www.w3.org/2000/svg" version="1.1" xmlns:xlink="http://www.w3.org/1999/xlink" xmlns:svgjs="http://svgjs.com/svgjs"></svg></g><g><svg viewBox="0 0 244.43135999999998 247.2" height="247.2" width="244.43135999999998"><g transform="matrix(1,0,0,1,0,59.01590005008944)"><svg viewBox="0 0 244.43135999999998 129.1681998998211" height="129.1681998998211" width="244.43135999999998"><g><svg viewBox="0 0 244.43135999999998 129.1681998998211" height="129.1681998998211" width="244.43135999999998"><g><svg viewBox="0 0 244.43135999999998 129.1681998998211" height="129.1681998998211" width="244.43135999999998"><g><svg viewBox="0 0 244.43135999999998 129.1681998998211" height="129.1681998998211" width="244.43135999999998"><g><svg viewBox="0 0 244.43135999999998 129.1681998998211" height="129.1681998998211" width="244.43135999999998"><g transform="matrix(1,0,0,1,0,0)"><svg width="244.43135999999998" viewBox="1.1 -35.55 68.23 36.06" height="129.1681998998211" data-palette-color="#ed3b43"><path d="M12.99 0.51L12.99 0.51Q9.59 0.51 6.97-0.71 4.35-1.93 2.8-4.43 1.25-6.93 1.1-10.72L1.1-10.72 1.15-10.86 6.98-10.86Q7.13-7.32 8.57-5.82 10.01-4.32 12.55-4.32L12.55-4.32Q14.23-4.32 15.43-5.05 16.63-5.79 17.26-7.15 17.9-8.52 17.9-10.42L17.9-10.42 17.9-31.03 13.13-31.74 13.13-35.55 27.93-35.55 27.93-31.76 24.02-31.03 24.02-10.42Q24.02-7.1 22.75-4.64 21.48-2.17 19.03-0.83 16.58 0.51 12.99 0.51ZM38.45 0L32.32 0 32.32-5.69 38.45-5.69 38.45 0ZM69.33 0L43.06 0 43.06-3.76 46.94-4.49 46.94-31.03 43.06-31.76 43.06-35.55 46.94-35.55 53.1-35.55 57.27-35.55 57.27-31.76 53.1-31.03 53.1-4.71 64.2-4.71 64.62-10.08 69.33-10.08 69.33 0Z" opacity="1" transform="matrix(1,0,0,1,0,0)" fill="#ed3b43" class="undefined-text-0" data-fill-palette-color="primary" id="text-0"></path></svg></g></svg></g></svg></g></svg></g><g></g></svg></g></svg></g><path d="M0 53.016L0 1 244.431 1 244.431 53.016 232.783 53.016 232.783 12.649 11.649 12.649 11.649 53.016 0 53.016M0 194.184L0 246.2 244.431 246.2 244.431 194.184 232.783 194.184 232.783 234.551 11.649 234.551 11.649 194.184 0 194.184" fill="#ed3b43" stroke="transparent" data-fill-palette-color="primary"></path></svg></g></svg><rect width="244.43135999999998" height="247.2" fill="transparent" stroke="transparent"></rect></g><defs></defs></svg>