<?xml version="1.0" standalone="no"?>
<!DOCTYPE svg PUBLIC "-//W3C//DTD SVG 20010904//EN"
 "http://www.w3.org/TR/2001/REC-SVG-20010904/DTD/svg10.dtd">
<svg version="1.0" xmlns="http://www.w3.org/2000/svg"
 width="380.000000pt" height="380.000000pt" viewBox="0 0 380.000000 380.000000"
 preserveAspectRatio="xMidYMid meet">

<g transform="translate(0.000000,380.000000) scale(0.100000,-0.100000)"
fill="#000000" stroke="none">
<path d="M2545 2934 c-77 -11 -179 -37 -249 -64 -75 -29 -209 -100 -202 -108
2 -2 26 6 53 17 131 55 293 70 397 37 27 -8 54 -12 59 -9 6 4 7 1 2 -7 -5 -8
-3 -11 6 -8 8 3 24 -4 37 -16 19 -17 22 -17 16 -3 -3 9 -2 17 4 17 6 0 12 -6
15 -12 2 -7 8 -10 12 -6 15 14 -8 30 -34 23 -24 -6 -25 -5 -7 8 11 8 27 12 35
10 9 -2 22 6 29 18 8 11 9 18 3 15 -6 -4 -9 -1 -6 6 3 7 23 14 48 14 36 2 39
0 20 -9 -25 -11 -29 -22 -13 -32 6 -4 9 -1 8 6 -4 16 42 21 60 7 7 -7 12 -7
12 -1 0 5 -12 15 -26 21 -15 7 -22 17 -18 24 5 7 3 8 -5 3 -7 -4 -33 4 -59 18
-47 26 -136 39 -197 31z m153 -105 c3 -11 2 -12 -6 0 -8 11 -14 10 -38 -4
l-29 -17 24 21 c26 23 42 23 49 0z m-73 1 c-3 -5 -18 -10 -33 -9 -24 0 -25 1
-7 9 28 12 47 12 40 0z"/>
<path d="M1947 2498 c-3 -13 -22 -133 -42 -268 -20 -135 -50 -321 -66 -415
-16 -93 -29 -178 -30 -188 0 -9 -4 -15 -9 -12 -6 3 -7 -1 -4 -9 4 -9 1 -16 -6
-16 -7 0 -10 -7 -6 -16 4 -9 2 -13 -5 -8 -8 4 -9 -1 -4 -17 3 -13 3 -19 -2
-14 -15 19 -35 17 -29 -3 4 -11 0 -24 -9 -32 -13 -11 -15 -9 -15 14 0 34 -16
34 -24 -1 -5 -16 -3 -29 4 -33 9 -6 9 -9 1 -14 -6 -4 -13 0 -16 8 -3 9 -7 22
-9 30 -3 7 2 23 9 34 16 22 10 33 -12 25 -8 -3 -23 4 -34 16 -27 29 -43 22
-46 -19 -2 -18 -6 -36 -9 -39 -4 -3 -4 6 -2 22 4 21 2 27 -11 25 -18 -3 -61
-50 -61 -68 0 -6 -4 -9 -9 -6 -5 3 -21 -1 -37 -8 -58 -29 -165 -15 -189 24 -6
9 -13 6 -28 -11 l-19 -24 16 27 c12 21 13 33 6 53 -6 15 -10 44 -10 66 l0 40
-112 -3 -113 -3 -3 -65 c-5 -102 34 -183 115 -238 19 -13 41 -21 49 -18 8 3
12 2 9 -4 -11 -17 80 -35 185 -35 121 0 182 17 261 72 l51 35 -4 -49 -3 -48
248 -3 248 -2 47 32 c50 34 81 60 147 120 l40 37 -233 1 -233 0 6 33 c12 71
145 971 145 983 0 11 -18 14 -69 14 -63 0 -69 -2 -74 -22z m-730 -910 c-3 -7
-5 -2 -5 12 0 14 2 19 5 13 2 -7 2 -19 0 -25z m347 -62 c-3 -9 -10 -16 -15
-16 -6 0 -5 9 1 21 13 24 24 20 14 -5z m166 -67 c-7 -11 -14 -18 -17 -15 -3 3
0 12 7 21 18 21 23 19 10 -6z m-36 -25 c3 -8 2 -12 -4 -9 -6 3 -10 10 -10 16
0 14 7 11 14 -7z"/>
<path d="M2904 1978 c-27 -60 -120 -201 -185 -278 -295 -355 -756 -619 -1164
-669 -121 -15 -176 -14 -280 4 -262 46 -425 223 -426 465 -1 53 -2 60 -9 36
-5 -16 -7 -34 -3 -39 3 -5 -1 -13 -8 -18 -10 -6 -13 -37 -13 -121 0 -94 4
-123 23 -172 17 -43 26 -55 33 -45 7 10 8 8 3 -7 -3 -13 1 -26 10 -34 8 -7 15
-18 15 -26 0 -18 100 -103 155 -130 112 -57 270 -81 426 -64 294 32 608 164
868 365 39 30 80 55 91 55 12 0 20 7 20 16 0 9 31 45 69 80 164 152 319 381
382 563 23 66 19 77 -7 19z"/>
<path d="M1591 1704 c0 -11 3 -14 6 -6 3 7 2 16 -1 19 -3 4 -6 -2 -5 -13z"/>
<path d="M1590 1621 c0 -7 -4 -10 -9 -7 -5 3 -11 -3 -14 -13 -3 -13 -1 -18 8
-14 15 5 28 33 20 41 -3 3 -5 0 -5 -7z"/>
</g>
</svg>
