<?xml version="1.0" standalone="no"?>
<!DOCTYPE svg PUBLIC "-//W3C//DTD SVG 20010904//EN"
 "http://www.w3.org/TR/2001/REC-SVG-20010904/DTD/svg10.dtd">
<svg version="1.0" xmlns="http://www.w3.org/2000/svg"
 width="537.000000pt" height="322.000000pt" viewBox="0 0 537.000000 322.000000"
 preserveAspectRatio="xMidYMid meet">

<g transform="translate(0.000000,322.000000) scale(0.100000,-0.100000)"
fill="#000000" stroke="none">
<path d="M2680 1608 l0 -1593 1335 0 1335 0 0 1593 0 1592 -1335 0 -1335 0 0
-1592z m1400 759 l-25 -13 -3 -592 -2 -592 225 0 c256 0 267 2 310 72 29 46
29 43 0 -39 l-19 -53 -335 0 c-278 0 -332 2 -311 13 l25 13 3 569 c1 314 0
580 -3 593 -3 13 -16 27 -28 32 -15 6 11 9 83 9 91 1 102 -1 80 -12z m280 2
c-13 -6 -28 -15 -32 -22 -4 -7 -8 -211 -8 -453 0 -254 -4 -464 -10 -494 -22
-115 -89 -220 -140 -220 l-27 0 27 54 c46 90 52 173 48 671 l-3 449 -25 13
c-22 11 -10 13 85 12 83 0 104 -3 85 -10z m-632 -1041 c7 -7 12 -23 12 -37 0
-36 36 -104 67 -127 57 -41 88 -47 201 -41 84 5 103 4 87 -5 -11 -7 -59 -14
-107 -16 -100 -5 -165 11 -234 59 -42 29 -84 96 -84 135 0 22 18 44 35 44 6 0
16 -5 23 -12z m-962 -817 c-3 -5 3 -11 14 -14 11 -3 20 -10 20 -16 0 -17 -30
-25 -42 -13 -8 8 -4 9 13 6 l24 -5 -22 17 c-24 17 -30 34 -12 34 5 0 8 -4 5
-9z m132 -44 c12 -3 10 -5 -5 -6 -20 -1 -23 4 -22 32 2 29 2 29 6 5 2 -15 12
-29 21 -31z m140 25 c4 -28 -24 -41 -44 -20 -20 20 -7 50 20 46 13 -2 22 -12
24 -26z m122 24 c0 -2 -9 -6 -20 -9 -11 -3 -20 -1 -20 4 0 5 9 9 20 9 11 0 20
-2 20 -4z m128 -23 c9 -26 7 -28 -19 -28 -16 0 -29 1 -29 2 0 10 25 53 31 53
4 0 11 -12 17 -27z m107 10 c7 -17 8 -16 15 2 7 16 9 13 9 -15 l1 -34 -17 24
-17 24 -7 -24 c-6 -22 -7 -21 -6 8 1 35 11 42 22 15z m-225 -18 c0 -20 -28
-31 -42 -17 -8 8 -4 9 12 5 19 -5 22 -3 17 10 -4 10 -2 17 3 17 6 0 10 -7 10
-15z"/>
<path d="M2995 500 c-8 -14 3 -30 21 -30 8 0 14 9 14 20 0 21 -24 28 -35 10z"/>
<path d="M3260 490 c0 -5 5 -10 10 -10 6 0 10 5 10 10 0 6 -4 10 -10 10 -5 0
-10 -4 -10 -10z"/>
<path d="M1023 2348 l27 -10 -2 -596 -3 -596 -25 -7 c-14 -4 128 -6 314 -6
l340 2 23 60 c31 80 29 91 -6 30 -16 -28 -41 -56 -56 -63 -18 -8 -97 -12 -251
-12 l-224 0 2 592 3 592 25 13 c22 11 10 13 -85 12 -86 0 -104 -3 -82 -11z"/>
<path d="M1293 2348 c15 -5 30 -20 33 -33 3 -13 4 -236 2 -497 -5 -507 -8
-543 -60 -626 l-21 -33 34 3 c43 4 90 64 121 156 22 65 23 84 28 542 l5 474
25 13 c22 11 10 13 -85 12 -86 0 -104 -3 -82 -11z"/>
<path d="M790 1305 c-19 -23 -5 -83 28 -124 16 -20 55 -49 86 -65 48 -25 72
-31 144 -34 57 -2 103 2 132 11 44 14 41 14 -81 13 -121 -1 -127 0 -167 27
-45 29 -82 90 -82 135 0 46 -35 68 -60 37z"/>
</g>
</svg>
